<svg width="261" height="261" viewBox="0 0 261 261" fill="none" xmlns="http://www.w3.org/2000/svg">
<g filter="url(#filter0_d_22_671)">
<rect x="40.724" y="36.2969" width="180" height="180" rx="32" fill="white"/>
<rect x="41.224" y="36.7969" width="179" height="179" rx="31.5" stroke="white"/>
</g>
<path fill-rule="evenodd" clip-rule="evenodd" d="M131.104 151.23C158.719 151.23 181.104 139.885 181.104 125.891C181.104 111.897 158.719 100.552 131.104 100.552C103.491 100.552 81.1045 111.897 81.1045 125.891C81.1045 139.885 103.491 151.23 131.104 151.23Z" fill="#6E81B6"/>
<path fill-rule="evenodd" clip-rule="evenodd" d="M141.238 134.081L143.718 121.316C144.278 118.435 143.812 116.287 142.335 114.929C140.904 113.615 138.475 112.976 134.909 112.976H130.613L131.842 106.652C131.865 106.534 131.862 106.413 131.832 106.296C131.803 106.18 131.748 106.072 131.672 105.979C131.596 105.886 131.5 105.812 131.391 105.761C131.283 105.71 131.164 105.683 131.045 105.683H125.116C124.727 105.683 124.393 105.959 124.318 106.341L121.684 119.893C121.445 118.368 120.854 117.057 119.91 115.975C118.171 113.985 115.421 112.976 111.734 112.976H100.244C99.8551 112.976 99.5208 113.252 99.4464 113.634L94.1156 141.064C94.069 141.302 94.1313 141.548 94.2861 141.735C94.4402 141.923 94.67 142.032 94.9136 142.032H100.888C101.278 142.032 101.612 141.755 101.686 141.373L102.976 134.738H107.424C109.757 134.738 111.719 134.485 113.25 133.987C114.815 133.478 116.256 132.615 117.525 131.426C118.551 130.483 119.399 129.428 120.052 128.289L118.987 133.77C118.94 134.008 119.003 134.255 119.157 134.441C119.311 134.629 119.542 134.738 119.785 134.738H125.713C126.102 134.738 126.437 134.461 126.511 134.08L129.437 119.023H133.505C135.238 119.023 135.746 119.368 135.884 119.516C136.01 119.652 136.27 120.129 135.978 121.633L133.62 133.769C133.597 133.887 133.601 134.008 133.63 134.124C133.66 134.24 133.715 134.348 133.791 134.441C133.867 134.533 133.963 134.608 134.071 134.659C134.18 134.71 134.298 134.737 134.418 134.737H140.44C140.629 134.737 140.811 134.672 140.957 134.552C141.102 134.433 141.202 134.266 141.238 134.081ZM113.753 123.534C113.381 125.448 112.679 126.812 111.667 127.59C110.64 128.383 108.996 128.785 106.781 128.785H104.133L106.048 118.931H109.471C111.987 118.931 113 119.468 113.407 119.919C113.971 120.544 114.091 121.795 113.753 123.534ZM166.209 115.975C164.47 113.985 161.72 112.976 158.034 112.976H146.544C146.154 112.976 145.82 113.252 145.746 113.634L140.415 141.064C140.368 141.302 140.43 141.548 140.585 141.735C140.74 141.923 140.97 142.032 141.212 142.032H147.188C147.578 142.032 147.911 141.755 147.986 141.373L149.275 134.738H153.723C156.058 134.738 158.017 134.485 159.549 133.987C161.115 133.478 162.556 132.615 163.825 131.426C164.884 130.453 165.755 129.36 166.415 128.179C167.076 126.998 167.549 125.681 167.825 124.264C168.504 120.769 167.961 117.98 166.209 115.975ZM160.392 123.534C160.019 125.448 159.317 126.812 158.306 127.59C157.278 128.383 155.634 128.785 153.42 128.785H150.771L152.685 118.931H156.11C158.625 118.931 159.638 119.468 160.046 119.919C160.609 120.544 160.729 121.795 160.392 123.534Z" fill="white"/>
<path fill-rule="evenodd" clip-rule="evenodd" d="M109.301 118.118C111.571 118.118 113.084 118.537 113.841 119.375C114.597 120.212 114.777 121.651 114.381 123.69C113.968 125.812 113.172 127.328 111.993 128.236C110.814 129.144 109.02 129.597 106.611 129.597H102.976L105.207 118.118H109.301ZM94.743 141.218H100.718L102.136 133.926H107.254C109.512 133.926 111.37 133.689 112.828 133.214C114.286 132.739 115.612 131.944 116.805 130.828C117.807 129.908 118.617 128.892 119.237 127.782C119.857 126.672 120.297 125.448 120.557 124.109C121.19 120.857 120.713 118.324 119.128 116.51C117.543 114.696 115.021 113.789 111.565 113.789H100.074L94.743 141.218ZM124.946 106.496H130.874L129.457 113.789H134.739C138.06 113.789 140.354 114.368 141.615 115.527C142.876 116.686 143.254 118.565 142.75 121.162L140.27 133.926H134.247L136.605 121.789C136.873 120.408 136.775 119.467 136.309 118.965C135.843 118.463 134.85 118.211 133.334 118.211H128.596L125.543 133.926H119.614L124.946 106.496ZM155.94 118.118C158.21 118.118 159.722 118.537 160.479 119.375C161.235 120.212 161.415 121.651 161.019 123.69C160.607 125.812 159.811 127.328 158.632 128.236C157.453 129.144 155.658 129.597 153.251 129.597H149.616L151.846 118.118H155.94ZM141.38 141.218H147.356L148.773 133.926H153.891C156.15 133.926 158.008 133.689 159.466 133.214C160.924 132.739 162.25 131.944 163.443 130.828C164.444 129.908 165.255 128.892 165.874 127.782C166.494 126.672 166.935 125.448 167.196 124.109C167.828 120.857 167.351 118.324 165.766 116.51C164.18 114.696 161.659 113.789 158.202 113.789H146.712L141.38 141.218Z" fill="black"/>
<defs>
<filter id="filter0_d_22_671" x="0.723999" y="0.296875" width="260" height="260" filterUnits="userSpaceOnUse" color-interpolation-filters="sRGB">
<feFlood flood-opacity="0" result="BackgroundImageFix"/>
<feColorMatrix in="SourceAlpha" type="matrix" values="0 0 0 0 0 0 0 0 0 0 0 0 0 0 0 0 0 0 127 0" result="hardAlpha"/>
<feOffset dy="4"/>
<feGaussianBlur stdDeviation="20"/>
<feComposite in2="hardAlpha" operator="out"/>
<feColorMatrix type="matrix" values="0 0 0 0 0.0367917 0 0 0 0 0.0348958 0 0 0 0 0.0484375 0 0 0 0.1 0"/>
<feBlend mode="normal" in2="BackgroundImageFix" result="effect1_dropShadow_22_671"/>
<feBlend mode="normal" in="SourceGraphic" in2="effect1_dropShadow_22_671" result="shape"/>
</filter>
</defs>
</svg>
