<?xml version="1.0" standalone="no"?>
<!DOCTYPE svg PUBLIC "-//W3C//DTD SVG 20010904//EN"
 "http://www.w3.org/TR/2001/REC-SVG-20010904/DTD/svg10.dtd">
<svg version="1.0" xmlns="http://www.w3.org/2000/svg"
 width="300.000000pt" height="300.000000pt" viewBox="0 0 300.000000 300.000000"
 preserveAspectRatio="xMidYMid meet">

<g transform="translate(0.000000,300.000000) scale(0.100000,-0.100000)"
fill="#000000" stroke="none">
<path d="M1370 2984 c-335 -40 -609 -157 -845 -361 -252 -218 -420 -511 -487
-848 -31 -155 -31 -395 0 -550 121 -611 576 -1066 1187 -1187 155 -31 395 -31
550 0 611 121 1066 576 1187 1187 31 155 31 395 0 550 -122 616 -586 1075
-1202 1190 -84 16 -321 27 -390 19z m203 -840 c29 -15 165 -93 303 -175 215
-128 256 -149 292 -149 l42 0 0 -285 0 -285 -83 0 -82 0 -76 78 c-42 42 -136
144 -210 227 -217 242 -234 259 -263 251 -13 -3 -82 -40 -153 -82 -70 -42
-149 -87 -176 -100 -45 -23 -48 -24 -72 -8 -28 18 -75 91 -75 116 0 38 449
438 492 438 5 0 32 -12 61 -26z m-833 -679 l0 -565 -175 0 -175 0 0 565 0 565
175 0 175 0 0 -565z m514 557 c3 -4 -31 -39 -76 -78 -123 -106 -188 -180 -188
-213 0 -37 56 -120 97 -144 31 -18 33 -18 76 1 24 11 110 59 191 107 l147 87
36 -33 c19 -19 113 -119 208 -224 95 -104 196 -212 225 -240 64 -61 100 -132
100 -198 0 -43 -5 -54 -35 -84 -36 -36 -62 -40 -117 -18 -13 5 -20 1 -27 -16
-20 -55 -84 -80 -152 -61 -33 9 -36 7 -52 -20 -33 -58 -128 -73 -187 -30 -25
19 -26 19 -49 1 -31 -26 -80 -33 -132 -19 -38 10 -72 40 -245 211 -176 175
-204 199 -232 199 l-32 0 0 285 0 285 29 0 c18 0 73 29 157 81 173 109 244
143 258 121z m1376 -557 l0 -565 -175 0 -175 0 0 565 0 565 175 0 175 0 0
-565z"/>
<path d="M550 1090 c-41 -41 -10 -110 50 -110 37 0 70 31 70 65 0 34 -33 65
-70 65 -17 0 -39 -9 -50 -20z"/>
<path d="M2370 1090 c-41 -41 -10 -110 50 -110 37 0 70 31 70 65 0 34 -33 65
-70 65 -17 0 -39 -9 -50 -20z"/>
</g>
</svg>
